<svg width="43" height="46" viewBox="0 0 43 46" fill="none" xmlns="http://www.w3.org/2000/svg">
<path d="M22.8086 34.1018L28.0426 20.5879H35.8937L22.8086 34.1018Z" fill="#F7C206"/>
<path d="M17.1382 20.5877L21.4999 31.486L24.9893 20.5877H17.1382Z" fill="#F7C206"/>
<path d="M19.7553 34.1018L14.5212 20.5879H6.67016L19.7553 34.1018Z" fill="#F7C206"/>
<path d="M6.67022 18.4081L9.72342 12.3051L14.5213 18.4081H6.67022Z" fill="#F7C206"/>
<path d="M11.9042 10.9974L15.8297 16.2286L19.7553 10.9974H11.9042Z" fill="#F7C206"/>
<path d="M17.1382 18.4081L21.0638 13.1769L24.9893 18.4081H17.1382Z" fill="#F7C206"/>
<path d="M22.3724 10.9974L26.2979 16.2286L30.2234 10.9974H22.3724Z" fill="#F7C206"/>
<path d="M27.6064 18.4081L32.4043 12.3051L35.4575 18.4081H27.6064Z" fill="#F7C206"/>
<path d="M21.0638 4.48746V1M39.383 9.25353L42 6.63793M3.61702 9.25353L1 6.63793M8.85106 34.1017L6.23404 36.7173M34.1489 34.1017L36.766 36.7173M21.5 41.0766V45M22.8086 34.1018L28.0426 20.5879H35.8937L22.8086 34.1018ZM19.7553 34.1018L14.5212 20.5879H6.67016L19.7553 34.1018ZM27.6064 18.4081L32.4043 12.3051L35.4575 18.4081H27.6064ZM22.3724 10.9974L26.2979 16.2286L30.2234 10.9974H22.3724ZM11.9042 10.9974L15.8297 16.2286L19.7553 10.9974H11.9042ZM17.1382 18.4081L21.0638 13.1769L24.9893 18.4081H17.1382ZM17.1382 20.5877L21.4999 31.486L24.9893 20.5877H17.1382ZM6.67022 18.4081L9.72342 12.3051L14.5213 18.4081H6.67022Z" stroke="#F7C206" stroke-linecap="round" stroke-linejoin="round"/>
</svg>
