<svg width="364" height="88" viewBox="0 0 364 88" fill="none" xmlns="http://www.w3.org/2000/svg">
<path d="M264.064 24.6156C263.228 27.4291 262.363 30.2451 261.525 33.0636C259.544 39.7394 257.568 46.4176 255.594 53.0958C254.966 55.2151 254.013 55.9069 251.749 55.9069H248.609C246.726 55.9069 245.719 55.2078 245.177 53.4038C243.504 47.8109 241.845 42.2058 240.176 36.6056C239.06 32.8607 237.941 29.1158 236.817 25.3734C236.754 25.0964 236.612 24.8436 236.409 24.6449V52.6289C236.409 54.9511 235.425 55.9167 233.063 55.9191C231.526 55.9191 229.992 55.9314 228.458 55.9191C226.64 55.8996 225.526 54.824 225.526 53.0445C225.519 40.3994 225.519 27.7567 225.526 15.1189C225.526 13.3883 226.625 12.2931 228.379 12.2834C232.11 12.2638 235.84 12.2638 239.568 12.2834C241.156 12.2834 242.187 13.0485 242.646 14.6789C244.009 19.4871 245.324 24.3051 246.653 29.1207L250.28 42.2938C250.439 41.8489 250.547 41.5971 250.618 41.3331L257.731 15.4807C258.462 12.8285 259.185 12.276 261.975 12.276H272.018C274.043 12.276 275.106 13.3149 275.108 15.2974V52.9174C275.108 54.8754 274.021 55.9094 271.993 55.9167H267.391C265.3 55.9167 264.232 54.8974 264.232 52.8587V24.6474L264.064 24.6156ZM206.073 28.0134L198.329 42.7827C196.367 46.53 194.405 50.2798 192.446 54.032C191.762 55.3447 190.721 55.9631 189.172 55.924C186.698 55.858 184.221 55.9118 181.746 55.9045C179.779 55.9045 178.668 54.8534 178.665 52.9736V15.1483C178.665 13.3565 179.76 12.2931 181.582 12.2663C183.219 12.2491 184.858 12.254 186.5 12.2663C188.462 12.2785 189.536 13.3223 189.539 15.2338V40.8027L189.71 40.8687C189.905 40.5411 190.125 40.2209 190.299 39.8811C194.725 31.4527 199.167 23.0316 203.547 14.5787C204.382 12.9703 205.477 12.1465 207.39 12.2443C209.581 12.3543 211.784 12.2687 213.978 12.2711C216.094 12.2711 217.154 13.2905 217.154 15.312V52.8416C217.154 54.8803 216.108 55.9143 214.015 55.9216H209.307C207.363 55.9094 206.28 54.8509 206.28 52.9394V28.0696L206.073 28.0134ZM294.432 46.7256H316.167C318.192 46.7256 319.247 47.7645 319.26 49.742C319.26 50.864 319.277 51.986 319.26 53.108C319.23 54.7703 318.141 55.8947 316.46 55.8971C306.415 55.9118 296.372 55.9118 286.329 55.8971C284.628 55.8971 283.49 54.7971 283.488 53.1471C283.475 40.436 283.475 27.7249 283.488 15.0065C283.488 13.3516 284.616 12.2614 286.324 12.2589C296.367 12.2467 306.412 12.2467 316.455 12.2589C318.151 12.2589 319.23 13.3711 319.26 15.0383C319.277 16.1627 319.26 17.2823 319.26 18.4043C319.247 20.3843 318.192 21.4231 316.169 21.4256H294.439V29.5827H315.937C318.251 29.5827 319.252 30.5556 319.257 32.7922V35.8527C319.238 37.686 318.155 38.7542 316.257 38.7567C309.319 38.764 302.381 38.764 295.443 38.7567H294.437L294.432 46.7256Z" fill="#192028"/>
<path fill-rule="evenodd" clip-rule="evenodd" d="M156.84 12.2613H149.406C147.647 12.2687 146.846 12.804 146.245 14.3709C143.235 22.1833 140.235 29.9982 137.248 37.8156L136.209 40.524C134.704 44.4498 133.197 48.3756 131.758 52.3233C131.069 54.2422 132.386 55.88 134.48 55.9044C135.708 55.9167 136.94 55.9142 138.171 55.9093L140.02 55.9044C141.628 55.9044 142.466 55.3276 143.013 53.8658L143.238 53.262C143.826 51.7142 144.396 50.1595 144.948 48.598C145.124 48.0896 145.378 47.9356 145.918 47.9356C150.662 47.9551 155.404 47.9551 160.148 47.9356C160.688 47.9331 160.934 48.1115 161.108 48.6127C161.535 49.8422 161.99 51.0571 162.447 52.2793L162.974 53.6873C163.605 55.3936 164.357 55.9044 166.255 55.9044H171.068C173.889 55.9044 175.104 54.2789 174.121 51.7171C169.328 39.1942 164.526 26.6787 159.715 14.1704C159.197 12.8187 158.347 12.2736 156.84 12.2613ZM152.902 24.7769H153.156L157.866 38.7249H148.199L152.902 24.7793V24.7769ZM338.503 52.8V42.0347C339.282 42.0347 340.054 42.042 340.819 42.0493C342.612 42.0664 344.366 42.0811 346.12 42.0029C348.341 41.9124 350.593 41.8024 352.76 41.3698C358.244 40.2771 362.222 37.3462 363.477 31.7973C363.919 29.7394 364.081 27.6311 363.958 25.5298C363.619 18.8393 359.998 14.608 353.302 13.0387C351.336 12.5813 349.328 12.3322 347.31 12.2956C343.274 12.2222 339.238 12.2344 335.202 12.2467C333.659 12.2516 332.115 12.2564 330.571 12.2564C328.736 12.2564 327.629 13.332 327.629 15.114C327.62 27.7591 327.62 40.4042 327.629 53.0518C327.629 54.8216 328.753 55.8873 330.576 55.9044C331.624 55.9142 332.669 55.9118 333.715 55.9093L335.286 55.9044C337.457 55.902 338.503 54.8949 338.503 52.8ZM338.581 32.8436V21.4524C339.544 21.4524 340.496 21.4427 341.444 21.4353C343.541 21.4019 345.638 21.4141 347.735 21.472C350.786 21.5796 353.148 24.1438 353.148 27.1431C353.148 30.14 350.767 32.7091 347.742 32.8191C345.646 32.8949 343.543 32.8778 341.415 32.8607C340.474 32.8509 339.531 32.8436 338.581 32.8436Z" fill="#192028"/>
<path d="M122.551 32.0589C123.748 32.7483 124.998 33.3056 126.054 34.0976C128.812 36.1925 129.733 39.1038 129.581 42.4038C129.254 49.5001 123.513 54.1518 116.717 55.4572C112.32 56.3176 107.776 56.1074 103.486 54.8461C98.0454 53.2523 94.3467 49.9498 93.0031 44.3887C92.5072 42.3501 93.6016 40.8443 95.7466 40.8272C97.5592 40.8125 99.3719 40.8272 101.187 40.8272C102.707 40.8272 103.505 41.3723 104.06 42.7338C105.853 47.1485 111.413 48.9672 115.642 46.5178C117.318 45.5498 118.153 44.1223 118.068 42.2034C117.982 40.2845 117.078 38.7127 115.219 38.0576C113.78 37.5516 112.183 37.3487 110.639 37.2656C108.13 37.1336 107.241 36.3783 107.219 33.9338C107.202 33.2215 107.229 32.5087 107.302 31.7998C107.458 30.4676 108.457 29.6365 109.847 29.5778C110.893 29.5338 111.938 29.5656 112.96 29.3749C115.659 28.8689 117.169 27.1309 117.03 24.8552C116.9 22.7065 114.904 20.7632 112.383 20.6678C110.854 20.6116 109.276 20.8878 107.781 21.2301C106.562 21.5112 105.636 22.3741 105.128 23.5278C104.402 25.1803 103.188 25.8794 101.334 25.7254C100.019 25.6154 98.6854 25.7058 97.3589 25.7009C94.9355 25.7009 93.7336 24.1976 94.3541 21.8729C95.2189 18.6389 97.2563 16.2654 100.181 14.6007C102.794 13.1121 105.702 12.5229 108.67 12.3127C112.193 12.0609 115.705 12.2321 119.118 13.2489C121.388 13.9236 123.433 14.9601 125.108 16.6394C129.682 21.2227 128.748 28.4069 123.144 31.7069L122.551 32.0589ZM199.132 10.2349C196.164 10.1763 193.68 9.7705 191.437 8.4505C190.137 7.68539 189.009 6.72717 188.378 5.34606C187.748 3.9625 188.168 2.54961 189.363 1.7405C189.939 1.33524 190.644 1.15723 191.343 1.24071C192.042 1.32419 192.685 1.66325 193.15 2.19272C195.417 4.68606 198.26 4.91828 201.26 4.11406C202.325 3.8305 203.29 3.01406 204.17 2.2905C205.049 1.5645 205.99 1.03161 207.192 1.33717C208.276 1.57672 209.119 2.41272 209.341 3.47606C209.595 4.50761 209.227 5.4145 208.591 6.23095C206.82 8.51161 204.336 9.53583 201.546 9.9905C200.62 10.1469 199.677 10.1861 199.132 10.2349Z" fill="#192028"/>
<path fill-rule="evenodd" clip-rule="evenodd" d="M99.653 72.204H93.2329V86.4356H97.0464V81.6787H100.269C103.303 81.6787 105.416 80.1998 105.416 77C105.416 73.4825 103.002 72.204 99.653 72.204ZM101.725 77.044C101.725 78.6989 100.513 78.7991 99.201 78.7991L97.0464 78.8016V75.2425H99.5089C100.843 75.2425 101.725 75.6654 101.725 77.044ZM106.806 79.3223C106.806 83.6587 109.615 86.7778 114.127 86.7778C118.559 86.7778 121.244 83.5194 121.241 79.3394C121.241 74.7609 118.432 71.8618 114.084 71.8618C109.696 71.8618 106.804 75.1032 106.804 79.3198L106.806 79.3223ZM110.698 79.288C110.698 76.5894 111.995 74.888 114.044 74.888C116.097 74.888 117.347 76.5209 117.342 79.2269C117.342 82.0674 116.133 83.7247 114.062 83.7247C111.953 83.7247 110.698 82.0649 110.698 79.288ZM123.377 86.438H130.371C134.001 86.438 136.131 85.0887 136.124 81.6396C136.124 78.4398 133.972 76.9609 130.566 76.9609H127.144V75.2009H134.885V72.204H123.379V86.438H123.377ZM127.129 79.8625H129.755C131.067 79.8625 132.276 80.0409 132.266 81.6225C132.266 83.0011 131.468 83.4216 129.848 83.4216H127.131L127.129 79.8625ZM137.729 79.3223C137.729 83.6587 140.541 86.7778 145.053 86.7778C149.482 86.7778 152.167 83.5194 152.164 79.3394C152.164 74.7609 149.355 71.8618 145.006 71.8618C140.621 71.8618 137.726 75.1032 137.726 79.3198L137.729 79.3223ZM141.623 79.2807C141.623 76.582 142.918 74.8831 144.97 74.8831V74.8905C147.019 74.8905 148.268 76.5209 148.268 79.222C148.268 82.0625 147.056 83.7198 144.984 83.7198C142.879 83.7198 141.623 82.0576 141.623 79.2807Z" fill="#7D8888"/>
<path d="M165.906 75.3622H161.577V86.438H157.722V75.3646H153.396V72.204H165.903L165.906 75.3622Z" fill="#7D8888"/>
<path fill-rule="evenodd" clip-rule="evenodd" d="M173.669 79.3223C173.669 83.6587 176.484 86.7778 180.993 86.7778C185.427 86.7778 188.11 83.5194 188.107 79.3394C188.107 74.7609 185.298 71.8618 180.949 71.8618C176.562 71.8618 173.669 75.1056 173.669 79.3223ZM177.564 79.2807C177.564 76.582 178.861 74.8831 180.91 74.8831L180.915 74.8905C182.967 74.8905 184.218 76.5209 184.208 79.222C184.208 82.0625 182.999 83.7198 180.927 83.7198C178.819 83.7198 177.564 82.0576 177.564 79.2807Z" fill="#7D8888"/>
<path d="M202.858 86.438H199.022V80.5591H194.08V86.4355H190.245V72.204H194.08V77.2811H199.022V72.204H202.858V86.438ZM218.134 86.438H214.298V75.3646H211.061L210.876 80.9013C210.731 84.9175 208.907 86.7191 206.405 86.7191C205.728 86.7102 205.054 86.6224 204.397 86.4575V83.4802C204.758 83.6024 205.14 83.6635 205.523 83.6611C206.385 83.6611 207.082 83.3018 207.165 80.3831L207.409 72.2064H218.136L218.134 86.438Z" fill="#7D8888"/>
<path fill-rule="evenodd" clip-rule="evenodd" d="M230.165 86.438H234.108L228.648 72.1868H224.793L219.316 86.438H223.213L224.178 83.8395H229.222L230.165 86.438ZM225.052 81.158L226.726 76.1835L228.375 81.1604L225.052 81.158ZM238.146 68.4884C238.146 70.6273 239.974 71.5073 241.901 71.5073C243.829 71.5073 245.651 70.6248 245.651 68.4884H243.892C243.707 69.2657 242.866 69.6446 241.901 69.6446C240.936 69.6446 240.093 69.2657 239.91 68.4884H238.146ZM244.217 86.438H247.93L247.928 72.204H243.865L238.882 81.6786L239.026 72.204H235.313V86.438H239.5L244.483 76.9633L244.217 86.438Z" fill="#7D8888"/>
<path d="M263.206 86.438H259.371V80.5591H254.438V86.4356H250.603V72.204H254.438V77.2811H259.381V72.204H263.216L263.206 86.438ZM278.133 86.7778C274.072 86.7778 271.673 84.898 271.612 81.6787H275.448C275.448 83.3556 276.635 83.9227 278.113 83.9227C279.403 83.9227 280.307 83.2016 280.307 82.2018C280.307 81.0236 279.342 80.3831 277.949 80.3831H276.596V77.7823C277.026 77.8238 277.519 77.8238 277.703 77.8238C279.342 77.8238 279.938 77.0831 279.938 76.2251C279.938 75.4429 279.178 74.7047 278.03 74.7047C276.552 74.7047 275.726 75.3036 275.651 76.4451H272.016C272.077 73.4874 274.292 71.8667 277.942 71.8667C281.428 71.8667 283.644 73.3456 283.644 75.8267C283.644 77.0489 282.679 78.2834 281.572 78.6818C282.323 78.8216 282.999 79.2244 283.48 79.8179C283.961 80.4114 284.215 81.1569 284.196 81.9207C284.203 84.8198 281.56 86.7778 278.133 86.7778Z" fill="#7D8888"/>
<path fill-rule="evenodd" clip-rule="evenodd" d="M295.543 86.438H299.482L294.026 72.1868H290.171L284.694 86.438H288.588L289.553 83.8395H294.598L295.543 86.438ZM290.428 81.158L292.101 76.1835L293.75 81.1604L290.428 81.158ZM303.52 68.4884C303.52 70.6273 305.345 71.5073 307.272 71.5073C309.2 71.5073 311.024 70.6248 311.029 68.4884H309.266C309.08 69.2657 308.24 69.6446 307.275 69.6446C306.31 69.6446 305.469 69.2657 305.286 68.4884H303.52ZM309.588 86.438H313.301L313.294 72.204H309.234L304.25 81.6786L304.394 72.204H300.681V86.438H304.866L309.854 76.9633L309.588 86.438Z" fill="#7D8888"/>
<path d="M316.008 72.204H321.546L324.212 82.0795L326.931 72.204H332.325V86.4355H328.721L328.905 75.5822L325.646 86.4355H322.714L319.475 75.6018L319.597 86.4355H316.008V72.204Z" fill="#7D8888"/>
<path fill-rule="evenodd" clip-rule="evenodd" d="M334.501 79.3223C334.501 83.6587 337.313 86.7778 341.825 86.7778C346.255 86.7778 348.942 83.5194 348.937 79.3394C348.937 74.7609 346.13 71.8618 341.781 71.8618C337.394 71.8618 334.501 75.1056 334.501 79.3223ZM338.396 79.2807C338.396 76.582 339.693 74.8831 341.745 74.8831V74.8905C343.785 74.8905 345.04 76.5209 345.04 79.222C345.04 82.0625 343.829 83.7198 341.759 83.7198C339.651 83.7198 338.396 82.0576 338.396 79.2807ZM351.072 72.204H358.416C360.937 72.204 363.13 73.1427 363.13 75.7803C363.13 77.2078 362.456 78.0243 361.225 78.6598C362.967 79.2172 363.849 80.4003 363.849 82.1554C363.849 83.4754 363.358 84.5754 362.415 85.3551C361.159 86.3965 359.747 86.4332 358.169 86.4332H351.072V72.204ZM357.531 77.8018C358.824 77.8018 359.415 77.3814 359.415 76.4207C359.415 75.2425 358.45 75.042 357.426 75.042H354.802V77.8043L357.531 77.8018ZM359.994 81.8767C359.994 83.2774 358.968 83.4974 357.819 83.4974L354.802 83.5096V80.2463H357.717C358.907 80.2463 359.994 80.4785 359.994 81.8767Z" fill="#7D8888"/>
<path d="M0 61.4215H24.2732V85.1375H0V61.4215Z" fill="#FF8900"/>
<path d="M24.2732 61.4215L0 85.1375V61.4215H24.2732Z" fill="#FFA700"/>
<path d="M24.2732 61.4215H48.5464V85.1375H24.2732V61.4215Z" fill="#FFB83A"/>
<path d="M48.5439 61.4215L24.2732 85.1375V61.4215H48.5439Z" fill="#FFCA49"/>
<path d="M24.2732 37.708H48.5464V61.424H24.2732V37.708Z" fill="#B8BA3C"/>
<path d="M48.5439 37.708L24.2732 61.4216V37.708H48.5439Z" fill="#CACB4B"/>
<path d="M48.5439 37.708H72.8171V61.424H48.5439V37.708Z" fill="#61C528"/>
<path d="M72.8171 37.708L48.5439 61.4216V37.708H72.8171Z" fill="#8DCC4E"/>
<path d="M48.5439 13.9919H72.8171V37.7079H48.5439V13.9919Z" fill="#4C9D33"/>
<path d="M72.8171 13.9919L48.5439 37.7055V13.9919H72.8171Z" fill="#5FB640"/>
</svg>
